<svg width="1068" height="481" viewBox="0 0 1068 481" fill="none" xmlns="http://www.w3.org/2000/svg" style="">
<path d="M117.633 378.074C65.7871 285.297 41.7655 176.961 52.1445 70.8642C53.4338 57.6853 56.3506 7.9951 74.5064 2.44748C92.2597 -2.97715 99.1461 42.5377 100.329 51.4307C101.347 59.086 112.937 172.822 81.6942 151.793C69.0915 143.31 67.0226 125.087 65.4552 111.329C64.9517 106.909 64.7254 102.663 65.4552 98.2841C67.3573 86.8716 53.5901 118.185 46.8203 127.568C25.3552 157.317 -20.2942 204.319 12.4788 243.237C23.2071 255.977 45.5908 261.744 60.9296 255.217C75.4925 249.02 81.2289 233.167 85.1549 219.145C89.7497 202.735 74.0897 231.688 73.1754 234.053C61.2924 264.785 54.1069 296.776 53.0763 329.756C52.9136 334.962 56.0708 390.446 52.4108 390.054C32.3417 387.903 37.6558 341.971 40.6974 329.889C42.8753 321.238 62.3612 292.451 71.5781 310.456C85.2118 337.089 79.1958 381.197 79.2983 409.487C79.3625 427.229 79.4474 444.987 79.2983 462.73C79.2573 467.6 79.8665 474.143 77.4348 478.702C75.22 482.855 76.9023 469.3 76.9023 464.593C76.9023 444.45 76.9023 424.306 76.9023 404.163C76.9023 354.404 77.8754 307.068 88.8819 258.278C97.507 220.045 105.299 183.419 105.653 144.073C105.716 137.118 102.047 121.489 113.24 129.697C123.052 136.893 128.902 149.103 133.606 159.912C147.342 191.477 155.12 225.611 161.292 259.343C171.294 314.004 173.641 369.314 178.596 424.528C179.006 429.095 184.057 450.667 176.998 453.412C157.578 460.964 143.041 444.042 135.869 428.122C125.635 405.409 123.263 379.73 121.626 355.18C119.904 329.349 118.257 301.805 123.49 276.247C129.042 249.126 146.017 202.024 176.2 192.657C208.439 182.651 218.965 231.241 246.48 238.578C259.349 242.01 256.329 191.555 256.064 186.401C254.35 153.157 241.437 122.88 228.378 92.6937C224.92 84.7025 220.372 63.4166 207.613 67.6696C194.304 72.1061 184.266 84.2906 180.992 97.7517C167.381 153.705 227.555 198.626 260.323 235.118C284.795 262.371 281.439 289.56 246.879 305.93C238.564 309.869 217.25 316.42 211.606 305.132C202.605 287.13 207.284 250.222 211.34 231.391C216.227 208.7 225.775 195.984 248.21 195.984C257.738 195.984 253.903 187.841 254.466 178.547C255.657 158.907 256.715 135.303 262.586 116.387C265.544 106.854 270.875 109.289 273.634 117.718C288.566 163.345 289.987 214.235 290.139 261.739C290.246 295.37 290.139 329.003 290.139 362.634C290.139 376.927 292.597 393.783 287.211 407.357C285.265 412.26 281.365 424.687 273.367 421.2C262.685 416.544 258.039 389.196 255.797 380.47C248.402 351.678 245.918 321.987 245.149 292.353C243.917 244.846 248.441 198.802 266.18 154.455C267.806 150.39 275.245 127.614 282.951 128.899C293.716 130.693 290.109 186.779 290.139 193.588C290.351 242.659 293.074 289.237 264.05 331.487C242.448 362.933 211.257 397.465 175.667 413.48C151.83 424.207 160.659 368.809 161.425 358.241C165.414 303.188 192.61 256.643 225.848 213.954C254.51 177.143 289.181 132.313 335.262 116.786C369.636 105.203 397.633 112.862 412.996 146.602C427.237 177.877 429.781 215.174 431.365 249.227C431.856 259.779 435.456 278.435 424.843 284.5C413.809 290.805 378.727 306.689 367.873 294.749C357.489 283.327 359.566 259.603 359.62 245.766C359.712 222.499 361.751 199.396 371.334 177.882C377.204 164.702 395.625 128.382 414.727 128.899C431.073 129.34 430.832 172.114 432.03 181.609C435.375 208.109 436.58 233.988 436.29 260.674C436.059 281.924 426.403 295.233 407.006 301.405C387.291 307.678 393.859 261.925 395.293 253.486C398.63 233.844 408.815 201.414 425.375 187.865C431.331 182.992 431.439 216.68 431.631 219.278C433.993 251.16 438.097 283.732 443.478 315.248C446.267 331.588 451.287 389.55 480.747 376.344C520.002 358.747 522.966 298.257 519.881 262.005C516.614 223.622 456.339 216.138 427.239 227.131C422.396 228.961 413.331 235.107 408.071 230.858C395.301 220.544 413.309 183.492 418.986 174.155C431.078 154.266 444.326 133.913 469.833 139.015C486.328 142.314 494.339 160.503 497.519 175.22C505.494 212.132 503.375 251.882 503.375 289.425C503.375 296.642 498.812 323.395 503.908 329.623C510.63 337.839 526.974 302.156 527.601 300.606C532.624 288.187 553.547 166.53 592.024 212.489C608.075 231.662 613.529 257.628 624.502 279.575C626.837 284.244 635.174 304.227 642.605 303.401C656.068 301.905 664.951 276.689 670.957 266.93C677.327 256.578 684.191 245.974 693.718 238.179C696.629 235.797 703.679 235.928 704.499 240.442C706.661 252.331 697.834 262.164 689.192 268.927C681.621 274.852 673.581 280.808 664.434 284.101C661.203 285.264 681.318 288.441 684.933 288.893C708.389 291.825 732.103 294.644 754.947 287.029C771.283 281.584 778.906 280.125 778.906 262.538C778.906 259.017 776.898 247.258 779.438 244.435C779.979 243.834 782.769 243.484 783.165 244.435C785.289 249.532 766.585 259.226 764.264 260.541C749.006 269.187 732.089 275.712 714.482 277.312C704.162 278.251 706.685 265.555 707.161 258.411C708.314 241.127 732.639 225.716 748.957 233.52C763.164 240.315 768.801 265.093 774.114 278.377C776.875 285.279 781.302 306.81 781.302 289.026C781.302 277.417 782.799 251.609 801.002 263.07C810.693 269.172 818.4 275.339 824.961 284.633C828.317 289.388 838.61 286.315 843.596 287.562C851.315 289.491 856.344 291.821 864.626 291.821C878.397 291.821 889.959 285.115 902.961 284.633C911.679 284.31 919.072 285.965 927.453 287.162C953.569 290.893 985.524 301.979 1011.18 290.756C1029.28 282.838 1049.16 288.471 1066.42 279.841" stroke="#FFF8B9" stroke-width="2" stroke-linecap="round" stroke-linejoin="round" class="rxEpyrTM_0"></path>
<style data-made-with="vivus-instant">.rxEpyrTM_0{stroke-dasharray:7322 7324;stroke-dashoffset:7323;animation:rxEpyrTM_draw 5000ms ease-out 0ms forwards;}@keyframes rxEpyrTM_draw{100%{stroke-dashoffset:0;}}@keyframes rxEpyrTM_fade{0%{stroke-opacity:1;}95.65217391304348%{stroke-opacity:1;}100%{stroke-opacity:0;}}</style></svg>
